/* XPM */
static char *pierre_moussu[] = {
/* columns rows colors chars-per-pixel */
"16 16 30 1 ",
"  c #5D6544",
". c #65754E",
"X c #6B7D4B",
"o c #6B7E4C",
"O c #6C7E4E",
"+ c #615F62",
"@ c #626063",
"# c DimGray",
"$ c gray42",
"% c #6E726F",
"& c #6F7370",
"* c #717270",
"= c #7B797C",
"- c #7C7A7D",
"; c #6D804D",
": c #798759",
"> c #7A885A",
", c #7F8F5D",
"< c #808F5D",
"1 c #81915D",
"2 c #808281",
"3 c #828483",
"4 c #838584",
"5 c #848684",
"6 c #898989",
"7 c #8B8A8D",
"8 c #9A9698",
"9 c #9E9D9F",
"0 c #9F9EA0",
"q c #A9A9A9",
/* pixels */
"68X>:<<>X8,,6O1O",
"826O1>1O62222OO1",
"862O>o>O2218o2O4",
"8262o8>%28626214",
"86O662o22o:q2%84",
"6=.O26661>1oo82o",
"-*..*6%O11O;3221",
"##@ ##+@+    ###",
"11O0997+79999o11",
"X666622+8626666O",
"6226227+82%6%6O2",
"266221%+8%2%22 6",
"2222616+6>1262&%",
"66%6116+71266226",
"%*>>168@*>>7%33*",
"5    #@@@   ##  "
};
