/* XPM */
static char *b741c9910c184db8fa2f2d3bdae2bbd0LhQlddLixkNlhtTK[] = {
/* columns rows colors chars-per-pixel */
"16 16 102 2 ",
"   c #4D4F3E",
".  c #4A503A",
"X  c #4D503F",
"o  c #484644",
"O  c #4D4E41",
"+  c #4F4F46",
"@  c #4A4848",
"#  c #4D4A4B",
"$  c #504F48",
"%  c #4E5041",
"&  c #4F5144",
"*  c #505543",
"=  c #525745",
"-  c #545745",
";  c #555947",
":  c #575C47",
">  c #585D47",
",  c #535249",
"<  c #525449",
"1  c #54554A",
"2  c #55544C",
"3  c #575B48",
"4  c #575C48",
"5  c #57584E",
"6  c #585A4A",
"7  c #595D49",
"8  c #5C5F4B",
"9  c #585B4F",
"0  c #5C5E4E",
"q  c #545351",
"w  c #575553",
"e  c #565455",
"r  c #595554",
"t  c #575851",
"y  c #5B5B51",
"u  c #5C5B54",
"i  c #5B5C55",
"p  c #5C5C55",
"a  c #595758",
"s  c #5B5958",
"d  c #5F5D5B",
"f  c #605F5D",
"g  c #5B604A",
"h  c #5C604A",
"j  c #5F654B",
"k  c #5E634E",
"l  c #5F644F",
"z  c #5F684F",
"x  c #5E6350",
"c  c #61674F",
"v  c #61684D",
"b  c #616751",
"n  c #636357",
"m  c #636853",
"M  c #656853",
"N  c #656855",
"B  c #656C54",
"V  c #686D54",
"C  c #61605A",
"Z  c #656759",
"A  c #60605D",
"S  c #64605F",
"D  c #6A6F58",
"F  c #6C6F5A",
"G  c #6B6F5E",
"H  c #697056",
"J  c #6D715B",
"K  c #6D725D",
"L  c #727A5F",
"P  c #615F60",
"I  c #636160",
"U  c #646261",
"Y  c #676561",
"T  c #676364",
"R  c #6C6B67",
"E  c #6C6C66",
"W  c #6F6D6D",
"Q  c #706E6D",
"!  c #6E7162",
"~  c #717166",
"^  c #737961",
"/  c #747B60",
"(  c #71736A",
")  c #71706E",
"_  c #76756D",
"`  c #767373",
"'  c #777573",
"]  c #777574",
"[  c #7A7772",
"{  c #787675",
"}  c #797870",
"|  c #797876",
" . c #7B7A78",
".. c #7D7C7A",
"X. c #939190",
"o. c #959391",
"O. c #959492",
"+. c #959394",
"@. c #989694",
"#. c #9E9E9C",
"$. c #A19F9D",
"%. c #A1A09E",
/* pixels */
"l O O.o.4 % X 7 ^ J c 9 Q ..%.O.",
"& +.$.{ { % : / J c | y 2 s { f ",
"a O.] O.f X J v c : d , % O + { ",
"e q { f 4 X { 7 { f O k H J c O ",
"@ f w % % { e 3 w e ] ! J J J v ",
"#.  ^ K { O.P w o { O.K ~ _ l 3 ",
"X.| X j O.' | f 6   O E { ` C % ",
"| { O % & { I + G J b * u U ] r ",
"Y 5 X D M Z , 7 _ m V k 0 y d # ",
"< - N c B z i n { ( x c ; = 9 9 ",
"t 9 V g l 8 u u E ) y x % % g N ",
"{ p h k ; % * ; = i d 5 9 9 G _ ",
"} % X > O 7 c / J . w + R  .@.O.",
"% : ^ F P % L J c J A r W { { S ",
"v L b { { O J c C { { T 2 O + { ",
"{ K { P { P O f { | f r $ 1 [ c "
};
