/* XPM */
static char *de521911398443308657da098b36ba6eyGFVnmXUS0HzlT8U[] = {
/* columns rows colors chars-per-pixel */
"16 16 33 1 ",
"  c gray14",
". c #2A2A2A",
"X c gray18",
"o c #323232",
"O c #373737",
"+ c #373738",
"@ c gray22",
"# c #3B3C3C",
"$ c gray24",
"% c #3F3F40",
"& c #404041",
"* c #424243",
"= c #424244",
"- c #464646",
"; c #46474A",
": c #4B4B4B",
"> c #4A4B4E",
", c #4B4C4F",
"< c gray30",
"1 c #4B4C50",
"2 c #4D4E51",
"3 c #505050",
"4 c #525254",
"5 c gray34",
"6 c #575758",
"7 c #575858",
"8 c #5A5A5A",
"9 c gray37",
"0 c #5F5F5F",
"q c gray39",
"w c #6A6A6A",
"e c gray43",
"r c #717171",
/* pixels */
"qerrrrrrrrrrq8-o",
"w988888848885-O.",
"e8555>>85558>*$.",
"w:24>*=552,5-;$.",
"w*5*@*:*>>**;@#.",
"5:@@$@$*;%@$$OX ",
"$@OO@O@@@OX@OXo.",
"Oo..oo.  oooXXXO",
"q9<3q9<.-qqqqqqq",
"85158*@X98885258",
"82156:$X9858-358",
"721255@X96<8>*58",
">$**>3@.3>=84>55",
"@O@$**O.<*@8,*>-",
"OOOOOOo OOO@@O+@",
"oXXXXX    XXXXXo"
};
