/* XPM */
static char *oak_log[] = {
/* columns rows colors chars-per-pixel */
"16 16 58 1 ",
"  c #372B15",
". c #382C16",
"X c #382B18",
"o c #3A2D1A",
"O c #39291C",
"+ c #3C2F1F",
"@ c #3B301E",
"# c #3F321F",
"$ c #3F341E",
"% c #3F3323",
"& c #40311A",
"* c #40311E",
"= c #43341F",
"- c #403320",
"; c #413421",
": c #413624",
"> c #453825",
", c #483926",
"< c #4C3D26",
"1 c #4C3D28",
"2 c #58472B",
"3 c #5E4B2D",
"4 c #5C4B31",
"5 c #634F2E",
"6 c #64502F",
"7 c #644F30",
"8 c #655130",
"9 c #675433",
"0 c #675434",
"q c #685232",
"w c #685433",
"e c #685034",
"r c #695435",
"t c #6B5837",
"y c #6C5836",
"u c #6D5539",
"i c #6E563C",
"p c #6B5838",
"a c #6D583B",
"s c #725A3E",
"d c #7C623F",
"f c #745F40",
"g c #7B6243",
"h c #7C6140",
"j c #8F6F40",
"k c #927241",
"l c #947242",
"z c #947346",
"x c #937445",
"c c #957445",
"v c #997B47",
"b c #977748",
"n c #9B7B49",
"m c #9D7949",
"M c #9B7B4C",
"N c #9D7B4D",
"B c #9F7F4E",
"V c #9B7C50",
/* pixels */
"a,ryn#yc;qw8hahr",
"7#8aX#n;8n#0n<d1",
"ro46=9n#8n+8d<d1",
"@a>5%dd#wn+0n#B;",
"rr=yqddt8a;rn#n+",
"ry3yenw8rr#rj*d-",
"+wg<ib59+k+d2Od#",
"frM#uM#n;nod<8d#",
"rrM#sc;r-r;l+yr#",
"rrV>8az:rroc;rc;",
"e>d-r9co6#3B-rM;",
"8#d#8an;v.3B#ub+",
"@omo8rnXr#8c+r5-",
"+;a4pwd<aa58#rxN",
"ro8b-rd<#kwvo8d#",
"r3ed&7ee$ry8 qe8"
};
